<?xml version="1.0" encoding="UTF-8"?>
<svg width="16px" height="13px" viewBox="0 0 16 13" version="1.1" xmlns="http://www.w3.org/2000/svg" xmlns:xlink="http://www.w3.org/1999/xlink">
    <!-- Generator: Sketch 51.3 (57544) - http://www.bohemiancoding.com/sketch -->
    <title>Email - filled</title>
    <desc>Created with Sketch.</desc>
    <defs></defs>
    <g id="Page-1" stroke="none" stroke-width="1" fill="none" fill-rule="evenodd">
        <path d="M0.029438862,1.24028596 C0.0886987807,0.943771091 0.217454987,0.66717903 0.404207507,0.435213846 C0.615408085,0.158783683 0.936557186,-0.00129058174 1.27546453,0.000942578735 C2.21719087,0.000942578735 3.15891721,0.000942578735 4.10064355,0.000942578735 L14.5204931,0.000942578735 C15.2357029,-0.0253684817 15.8601773,0.50191058 15.9843331,1.23694542 L15.9843331,1.27703199 C16.0483284,1.82851032 15.914876,2.38521726 15.6095644,2.84040856 C15.2714572,3.36983707 14.8359571,3.82401771 14.3283041,4.17662784 C12.8452453,5.21553833 11.3653896,6.2945354 9.89514337,7.37353247 C9.48733437,7.70393158 9.04711453,7.98835138 8.58185153,8.22203172 C8.20664233,8.40898664 7.76907151,8.40156647 7.39988888,8.20198843 C6.99339479,7.97782458 6.59980449,7.72908679 6.22112938,7.45704618 C4.9612234,6.56623332 3.70772371,5.65871773 2.46063033,4.73449939 C1.88287224,4.36363506 1.3458102,3.92787802 0.859054923,3.43502614 C0.502768882,3.07054861 0.234852526,2.62280797 0.0774861242,2.12887179 C-0.0057324671,1.84081576 -0.0221995875,1.53627292 0.029438862,1.24028596 Z M14.5515751,13 C10.8194241,13 7.08727321,13 3.35512227,13 L1.45486568,13 C1.06646749,12.9975215 0.694987542,12.8446604 0.422151462,12.5750463 C0.149315383,12.3054322 -0.002526224,11.9411516 3.18042675e-05,11.5623464 C3.18042675e-05,9.99967945 3.18042675e-05,8.4088845 3.18042675e-05,6.83059088 C3.18042675e-05,6.12114008 3.18042675e-05,5.41168928 0,4.64285714 C0.656950186,5.35230794 1.47088808,5.77110268 2.21432742,6.28053211 C3.48009699,7.1556256 4.75227551,8.01821776 6.02124956,8.89018592 C6.41445625,9.15923751 6.84642546,9.36988761 7.30304152,9.5152527 C7.7694656,9.65670816 8.26988594,9.65014233 8.73223956,9.49650069 C9.22613881,9.33600041 9.69111673,9.1008165 10.1101659,8.79955123 C11.7572686,7.67443103 13.4171892,6.56181216 15.0642919,5.43356662 C15.3847399,5.21166791 15.679552,4.9522652 16,4.69911315 C16,5.01164654 16,5.35543327 16,5.68671867 C16,7.64630302 15.9839776,9.60588738 16,11.5623464 C15.9884267,12.3419643 15.35061,12.9750378 14.5515751,13 Z" id="Email---filled" fill="#FFFFFF" fill-rule="nonzero"></path>
    </g>
</svg>