<?xml version="1.0" encoding="UTF-8"?>
<svg width="24px" height="24px" viewBox="0 0 24 24" version="1.1" xmlns="http://www.w3.org/2000/svg" xmlns:xlink="http://www.w3.org/1999/xlink">
    <!-- Generator: Sketch 52.6 (67491) - http://www.bohemiancoding.com/sketch -->
    <title>5b34f3480c38d5dc1058dd56_insta</title>
    <desc>Created with Sketch.</desc>
    <g id="Page-1" stroke="none" stroke-width="1" fill="none" fill-rule="evenodd">
        <g id="Artboard-Copy-2" transform="translate(-13.000000, -13.000000)" fill="#8D949E" fill-rule="nonzero">
            <g id="5b34f3480c38d5dc1058dd56_insta" transform="translate(13.000000, 13.000000)">
                <path d="M17.280847,0 L6.58644706,0 C2.95468235,0 0,2.95482353 0,6.58658823 L0,17.2809882 C0,20.9128941 2.95468235,23.8675765 6.58644706,23.8675765 L17.280847,23.8675765 C20.9128941,23.8675765 23.8675765,20.912753 23.8675765,17.2809882 L23.8675765,6.58658823 C23.8677177,2.95482353 20.9128941,0 17.280847,0 Z M21.7500706,17.2809882 C21.7500706,19.7452235 19.7452235,21.7499294 17.2809882,21.7499294 L6.58644706,21.7499294 C4.12235294,21.7500706 2.11764706,19.7452235 2.11764706,17.2809882 L2.11764706,6.58658823 C2.11764706,4.12249412 4.12235294,2.11764706 6.58644706,2.11764706 L17.280847,2.11764706 C19.7450823,2.11764706 21.7499294,4.12249412 21.7499294,6.58658823 L21.7499294,17.2809882 L21.7500706,17.2809882 Z" id="Shape"></path>
                <path d="M11.9337882,5.784 C8.54258824,5.784 5.78371765,8.54287056 5.78371765,11.9340706 C5.78371765,15.3251294 8.54258824,18.0838588 11.9337882,18.0838588 C15.3249882,18.0838588 18.0838588,15.3251294 18.0838588,11.9340706 C18.0838588,8.54287056 15.3249882,5.784 11.9337882,5.784 Z M11.9337882,15.9660706 C9.7104,15.9660706 7.9013647,14.1573177 7.9013647,11.9339294 C7.9013647,9.7104 9.7102588,7.90150588 11.9337882,7.90150588 C14.1573177,7.90150588 15.9662118,9.7104 15.9662118,11.9339294 C15.9662118,14.1573177 14.1571765,15.9660706 11.9337882,15.9660706 Z M18.3417882,3.98837647 C17.9337882,3.98837647 17.5329882,4.15355294 17.244847,4.4429647 C16.9538214,4.7345357 16.789903,5.12936078 16.788847,5.54131765 C16.788847,5.94945882 16.9554353,6.35025882 17.244847,6.63967059 C17.532847,6.92767059 17.9337882,7.09425882 18.3417882,7.09425882 C18.7512,7.09425882 19.1507294,6.92767059 19.4401412,6.63967059 C19.729553,6.35025882 19.8947294,5.94931765 19.8947294,5.54131765 C19.8947294,5.13190588 19.729553,4.7309647 19.4401412,4.4429647 C19.1521412,4.15355294 18.7512,3.98837647 18.3417882,3.98837647 Z" id="Shape"></path>
            </g>
        </g>
    </g>
</svg>