<?xml version="1.0" encoding="UTF-8"?>
<svg width="16px" height="16px" viewBox="0 0 16 16" version="1.1" xmlns="http://www.w3.org/2000/svg" xmlns:xlink="http://www.w3.org/1999/xlink">
    <!-- Generator: Sketch 51.3 (57544) - http://www.bohemiancoding.com/sketch -->
    <title>Linkedin - filled</title>
    <desc>Created with Sketch.</desc>
    <defs></defs>
    <g id="Page-1" stroke="none" stroke-width="1" fill="none" fill-rule="evenodd">
        <path d="M3,0 L13,0 C14.6568542,-3.04359188e-16 16,1.34314575 16,3 L16,13 C16,14.6568542 14.6568542,16 13,16 L3,16 C1.34314575,16 2.02906125e-16,14.6568542 0,13 L0,3 C-2.02906125e-16,1.34314575 1.34314575,3.04359188e-16 3,0 Z M2.08735211,13.8198323 L4.41310202,13.8198323 L4.41310202,5.4340298 L2.08735211,5.4340298 L2.08735211,13.8198323 Z M3.25568657,4.35304744 C3.94904394,4.35304744 4.51683265,3.82347528 4.51683265,3.17379397 C4.51683265,2.52957216 3.94904394,2 3.25568657,2 C2.56778871,2 2,2.52957216 2,3.17379397 C2,3.82347528 2.56778871,4.35304744 3.25568657,4.35304744 Z M8.59508824,8.97179022 C8.60054775,7.89080787 9.24476955,7.25750508 10.1838047,7.25750508 C11.1173804,7.25750508 11.6797096,7.86896984 11.6742501,8.89535713 L11.6742501,13.8198323 L14,13.8198323 L14,8.48043461 C14,6.52593116 12.8535036,5.32483966 11.1064614,5.32483966 C9.86169382,5.32483966 8.9608752,5.93630442 8.58416922,6.91355615 L8.4858981,6.91355615 L8.4858981,5.4340298 L6.26933833,5.4340298 L6.26933833,13.8198323 L8.59508824,13.8198323 L8.59508824,8.97179022 Z" id="Linkedin---filled" fill="#FFFFFF" fill-rule="nonzero"></path>
    </g>
</svg>