<?xml version="1.0" encoding="UTF-8"?>
<svg width="82px" height="88px" viewBox="0 0 82 88" version="1.1" xmlns="http://www.w3.org/2000/svg" xmlns:xlink="http://www.w3.org/1999/xlink">
    <!-- Generator: Sketch 52.6 (67491) - http://www.bohemiancoding.com/sketch -->
    <title>5db20e130ef7f39dca1182ed_lock blue</title>
    <desc>Created with Sketch.</desc>
    <defs>
        <filter x="-241.7%" y="-187.1%" width="583.3%" height="474.2%" filterUnits="objectBoundingBox" id="filter-1">
            <feOffset dx="0" dy="0" in="SourceAlpha" result="shadowOffsetOuter1"></feOffset>
            <feGaussianBlur stdDeviation="15" in="shadowOffsetOuter1" result="shadowBlurOuter1"></feGaussianBlur>
            <feColorMatrix values="0 0 0 0 0   0 0 0 0 0   0 0 0 0 0  0 0 0 0.5 0" type="matrix" in="shadowBlurOuter1" result="shadowMatrixOuter1"></feColorMatrix>
            <feMerge>
                <feMergeNode in="shadowMatrixOuter1"></feMergeNode>
                <feMergeNode in="SourceGraphic"></feMergeNode>
            </feMerge>
        </filter>
    </defs>
    <g id="Page-1" stroke="none" stroke-width="1" fill="none" fill-rule="evenodd">
        <g id="5db20e130ef7f39dca1182ed_lock-blue" filter="url(#filter-1)" transform="translate(29.000000, 28.000000)" fill="#FFFFFF">
            <path d="M3.34461538,31 L2.94153846,30.9008 C1.31717422,30.5508394 0.160397593,29.0992036 0.172307692,27.4257 C0.151794872,23.4494333 0.151794872,19.4742 0.172307692,15.5 C0.163283406,14.5349143 0.546417126,13.608097 1.23273344,12.9347834 C1.91904976,12.26147 2.84883115,11.9002464 3.80615385,11.935 C9.26461538,11.935 14.7230769,11.935 20.1815385,11.935 C21.9725925,11.8750035 23.5224938,13.1802787 23.7815385,14.9668 C23.7957944,15.0249336 23.8143066,15.0819231 23.8369231,15.1373 L23.8369231,27.7915 C23.8126038,27.8563733 23.7920562,27.9226188 23.7753846,27.9899 C23.5771015,29.3069359 22.6557567,30.3973052 21.3969231,30.8047 C21.1569231,30.8946 20.8984615,30.938 20.6492308,31 L3.34461538,31 Z M10.8030769,23.7522 C10.8030769,24.1552 10.8030769,24.5582 10.8030769,24.9643 C10.7911816,25.6303002 11.3174192,26.1799154 11.9784615,26.1919 C12.6395039,26.2038846 13.1850277,25.6737002 13.1969231,25.0077 C13.2123077,24.211 13.1969231,23.4143 13.1969231,22.6176 C13.1823201,22.4395694 13.266319,22.2679277 13.4153846,22.1712 C14.173028,21.6418677 14.5377857,20.7035347 14.3384615,19.7966 C14.1451641,18.785794 13.3297129,18.0141635 12.3162954,17.8831011 C11.302878,17.7520388 10.3204265,18.2911517 9.88,19.22 C9.43076923,20.088 9.53846154,21.2474 10.2984615,21.8891 C10.6983899,22.2175401 10.8913097,22.7378267 10.8030769,23.25 C10.7938462,23.4081 10.8030769,23.5786 10.8030769,23.7522 Z" id="Shape" fill-rule="nonzero"></path>
            <path d="M12.5384615,0 C13.1938462,0.1209 13.8646154,0.1922 14.5076923,0.3689 C16.3295851,0.857475088 17.8858061,2.05205998 18.8369231,3.6921 C19.9138462,5.4684 20.2553846,7.4369 20.28,9.4829 C20.28,9.8766 20.28,10.2672 20.28,10.6888 L16.7476923,10.6888 C16.7476923,10.5679 16.7476923,10.4315 16.7476923,10.2951 C16.8046542,9.19563459 16.7009831,8.09370239 16.44,7.0246 C16.0307692,5.58 15.2923077,4.34 13.7815385,3.8719 C12.04,3.317 10.3476923,3.3945 8.89846154,4.6779 C8.02769231,5.4498 7.61846154,6.5007 7.43692308,7.6229 C7.32,8.3452 7.30461538,9.0861 7.25538462,9.8208 C7.23692308,10.1029 7.25538462,10.385 7.25538462,10.6919 L3.72307692,10.6919 C3.72307692,10.3416 3.72307692,9.982 3.72307692,9.6224 C3.72307692,7.8523 3.96615385,6.1225 4.74153846,4.5074 C5.93538462,2.0274 7.88,0.5425 10.5876923,0.124 L11.4553846,0 L12.5384615,0 Z" id="Shape"></path>
        </g>
    </g>
</svg>