<?xml version="1.0" encoding="UTF-8"?>
<svg width="24px" height="24px" viewBox="0 0 24 24" version="1.1" xmlns="http://www.w3.org/2000/svg" xmlns:xlink="http://www.w3.org/1999/xlink">
    <!-- Generator: Sketch 52.6 (67491) - http://www.bohemiancoding.com/sketch -->
    <title>Group</title>
    <desc>Created with Sketch.</desc>
    <g id="Page-1" stroke="none" stroke-width="1" fill="none" fill-rule="evenodd">
        <g id="Artboard-Copy-3" transform="translate(-13.000000, -13.000000)" fill="#8D949E" fill-rule="nonzero">
            <g id="Group" transform="translate(13.000000, 13.000000)">
                <path d="M23.9999986,6.34869056 L24,6.35636211 L24,17.6470588 C24,21.1556914 21.1556914,24 17.6470588,24 L6.35294118,24 C2.84430865,24 0,21.1556914 0,17.6470588 L0,6.35636212 L1.39764706e-06,6.34869056 C0.00229747765,2.84201174 2.84572563,0 6.35294118,0 L17.6470588,0 C21.1542744,0 23.9977025,2.84201174 23.9999986,6.34869056 Z M22.5882353,7.90849348 L15.2912454,14.2930556 C13.4072058,15.9420011 10.5927942,15.9420011 8.70883282,14.2931239 L1.41176471,7.90849348 L1.41176471,17.6470588 C1.41176471,20.3759952 3.62400477,22.5882353 6.35294118,22.5882353 L17.6470588,22.5882353 C20.3759952,22.5882353 22.5882353,20.3759952 22.5882353,17.6470588 L22.5882353,7.90849348 Z M1.42144588,6.04109478 L9.63853947,13.2307091 C10.9902647,14.4137636 13.0097353,14.4137636 14.3615387,13.2306408 L22.5785541,6.04109478 C22.4176539,3.45744354 20.2712533,1.41176471 17.6470588,1.41176471 L6.35294118,1.41176471 C3.7287467,1.41176471 1.58234613,3.45744354 1.42144588,6.04109478 Z" id="Shape"></path>
            </g>
        </g>
    </g>
</svg>