<?xml version="1.0" encoding="UTF-8"?>
<svg width="506px" height="505px" viewBox="0 0 506 505" version="1.1" xmlns="http://www.w3.org/2000/svg" xmlns:xlink="http://www.w3.org/1999/xlink">
    <!-- Generator: Sketch 51.2 (57519) - http://www.bohemiancoding.com/sketch -->
    <title>Shape</title>
    <desc>Created with Sketch.</desc>
    <defs></defs>
    <g id="Page-1" stroke="none" stroke-width="1" fill="none" fill-rule="evenodd">
        <path d="M252.732212,0.0013118495 C252.146272,0.0325618495 251.564212,0.0872488495 250.982212,0.17709185 C246.837712,0.65756185 243.021312,2.65759185 240.271212,5.79429185 C237.521212,8.93489185 236.036812,12.9817918 236.107112,17.1532918 L236.107112,73.1532918 C236.044612,77.6493918 237.786812,81.9852918 240.943012,85.1842918 C244.099212,88.3873918 248.411812,90.1920918 252.908012,90.1920918 C257.404212,90.1920918 261.716612,88.3873918 264.873012,85.1842918 C268.029212,81.9850918 269.771412,77.6490918 269.708912,73.1532918 L269.708912,17.1532918 C269.802662,12.6063918 268.048712,8.21579185 264.849512,4.98529185 C261.654212,1.75089185 257.279212,-0.0459081505 252.732512,0.000891849502 L252.732212,0.0013118495 Z M82.9822115,67.3763118 C78.6892115,67.7942818 74.7244115,69.8490118 71.9002115,73.1107118 C69.0799115,76.3724118 67.6229115,80.5951118 67.8299115,84.9037118 C68.0330315,89.2123118 69.8885115,93.2748118 73.0096115,96.2517118 L112.208612,135.454712 C116.458612,139.704712 122.657612,141.364912 128.462612,139.810212 C134.271212,138.251612 138.806612,133.716412 140.364612,127.908212 C141.919312,122.103512 140.259142,115.904212 136.009112,111.654212 L96.8061115,72.4552118 C93.6342115,69.1974118 89.2788115,67.3654118 84.7321115,67.3771118 C84.1500815,67.3497678 83.5641115,67.3497678 82.9821115,67.3771118 L82.9822115,67.3763118 Z M420.552212,67.3763118 C416.188912,67.5052218 412.048312,69.3255118 409.005212,72.4544118 L369.802212,111.653412 C365.552212,115.903412 363.892012,122.102412 365.446712,127.907412 C367.005312,133.716012 371.540512,138.251412 377.348712,139.809412 C383.153412,141.364112 389.352712,139.703942 393.602712,135.453912 L432.801712,96.2509118 C436.079012,93.0868118 437.930612,88.7275118 437.930612,84.1689118 C437.930612,79.6142118 436.079012,75.2548118 432.805612,72.0869118 C429.528312,68.9228118 425.106412,67.2197118 420.551612,67.3760118 L420.552212,67.3763118 Z M252.902212,106.751312 C172.687212,106.751312 107.302212,172.138312 107.302212,252.351312 C107.302212,332.564312 172.689212,397.951312 252.902212,397.951312 C333.115212,397.951312 398.502212,332.564312 398.502212,252.351312 C398.502212,172.138312 333.115212,106.751312 252.902212,106.751312 Z M252.902212,140.353312 C314.957212,140.353312 364.902212,190.298312 364.902212,252.353312 C364.902212,314.408312 314.957212,364.353312 252.902212,364.353312 C190.847212,364.353312 140.902212,314.408312 140.902212,252.353312 C140.902212,190.298312 190.847212,140.353312 252.902212,140.353312 Z M15.9522115,235.552312 C11.4952115,235.782782 7.31161154,237.775012 4.32721154,241.091412 C1.33891154,244.407812 -0.207988457,248.771112 0.0225115432,253.228412 C0.256891543,257.685412 2.24911154,261.865112 5.56551154,264.853412 C8.87801154,267.837812 13.2452115,269.384612 17.7025115,269.154212 L73.7025115,269.154212 C78.1986115,269.216712 82.5345115,267.474512 85.7335115,264.318312 C88.9366115,261.162112 90.7413115,256.849512 90.7413115,252.353312 C90.7413115,247.857112 88.9366115,243.544712 85.7335115,240.388312 C82.5343115,237.232112 78.1983115,235.489912 73.7025115,235.552412 L17.7025115,235.552412 C17.1204815,235.521162 16.5345115,235.521162 15.9525115,235.552412 L15.9522115,235.552312 Z M430.352212,235.552312 C425.895212,235.782782 421.715512,237.775012 418.727212,241.091412 C415.738912,244.407812 414.192012,248.771112 414.426412,253.228412 C414.656882,257.685412 416.649112,261.865112 419.965512,264.853412 C423.281912,267.837812 427.645212,269.384612 432.102512,269.154212 L488.102512,269.154212 C492.598612,269.216712 496.934512,267.474512 500.137512,264.318312 C503.340512,261.162112 505.141412,256.849512 505.141412,252.353312 C505.141412,247.857112 503.340612,243.544712 500.137512,240.388312 C496.934412,237.231912 492.598412,235.489912 488.102512,235.552412 L432.102512,235.552412 C431.520482,235.521162 430.934512,235.521162 430.352512,235.552412 L430.352212,235.552312 Z M123.752212,364.172312 C119.388912,364.301222 115.244412,366.121512 112.201212,369.246512 L73.0022115,408.449512 C68.7483115,412.699512 67.0881115,418.894512 68.6467115,424.703512 C70.2014115,430.512112 74.7365115,435.047512 80.5447115,436.601512 C86.3533115,438.160112 92.5487115,436.499952 96.7987115,432.246012 L136.001712,393.047012 C139.275112,389.882912 141.126712,385.519712 141.126712,380.965012 C141.126712,376.410312 139.279012,372.047012 136.001712,368.883012 C132.724412,365.715012 128.302512,364.015812 123.751712,364.172112 L123.752212,364.172312 Z M379.772212,364.172312 C375.479212,364.590282 371.510512,366.645012 368.690212,369.906712 C365.869912,373.168412 364.412912,377.391112 364.616012,381.699712 C364.823042,386.004412 366.678512,390.070812 369.795712,393.047712 L408.998712,432.246712 C413.248712,436.500612 419.443712,438.160812 425.252712,436.602212 C431.061312,435.047512 435.596712,430.512412 437.150712,424.704212 C438.709312,418.895612 437.049152,412.700212 432.795212,408.450212 L393.596212,369.247212 C390.424312,365.993312 386.068912,364.161312 381.522212,364.173012 C380.940182,364.141762 380.354212,364.141762 379.772212,364.173012 L379.772212,364.172312 Z M252.722212,414.399312 C252.136272,414.426656 251.554212,414.48525 250.972212,414.575092 C246.827712,415.051652 243.011312,417.055592 240.261212,420.192292 C237.511112,423.328992 236.026812,427.375892 236.097112,431.547292 L236.097112,487.547292 C236.034612,492.043392 237.776812,496.379292 240.933012,499.582292 C244.089212,502.785292 248.401812,504.586192 252.898012,504.586192 C257.394212,504.586192 261.706612,502.785392 264.863012,499.582292 C268.019412,496.379192 269.761412,492.043192 269.698912,487.547292 L269.698912,431.547292 C269.792662,427.000392 268.038712,422.609792 264.839512,419.379292 C261.644212,416.148792 257.269212,414.351992 252.722512,414.398792 L252.722212,414.399312 Z" id="Shape" fill="#000000" fill-rule="nonzero"></path>
    </g>
</svg>